<svg xmlns="http://www.w3.org/2000/svg" viewBox="0 0 512 512"><path fill="#4f46e5" d="M319.41 18.87c104.95 27.88 182.31 123.62 182.31 237.13 0 134.29-108.1 243.56-241.89 245.43 17.79-35.69 40.38-81.01 64.53-129.53 63.61-127.88 98.49-199.18 98.83-202.01.56-3.88.22-4.72-3.8-8.7-7.27-7.34-4.7-7.65-87.55 11.43-40.26 9.33-74.13 17.19-75.13 17.51-1.23.31-2.01 0-2.01-.84 0-.73 14.65-38.37 32.43-83.67 17.89-45.19 32.43-83.64 32.43-85.22 0-.57-.05-1.14-.16-1.7ZM162.49 29.27c-16.85 60.39-73.31 276.63-73.31 282.07 0 7.23 7.27 13.63 15.43 13.63 1.79 0 37.68-8.07 79.62-17.83 42.04-9.86 76.71-17.72 77.16-17.61.45.21-15.99 64.68-36.46 143.44-6.37 24.37-11.92 45.75-16.64 64.08-112.51-22.34-197.46-121.73-197.46-240.85 0-102.26 62.66-190.09 151.66-226.93Z"/></svg>